# xmcd CD database file
#
# Track frame offsets:
#	150
#	14960
#	33104
#	52087
#	68950
#	80130
#	101403
#	115842
#	135537
#	158736
#	185460
#	207489
#
# Disc length: 2984 seconds
#
# Revision: 0
# Processed by: cddbd v1.4PL0 Copyright (c) Steve Scherf et al.
# Submitted via: CDex 1.50Beta6
#
DISCID=aa0ba60c
DTITLE=Sarah Theron - Egoli Vol 1
DYEAR=2002
DGENRE=Jazz
TTITLE0=Smile
TTITLE1=Cry Me A River
TTITLE2=Peanutbotter and Jam
TTITLE3=Voete Van Beton
TTITLE4=Mamma, 'k Wil 'n Man Hê
TTITLE5=You Are Too Beautiful
TTITLE6=I Am What I Am
TTITLE7=Stormy Weather
TTITLE8=Die Een Wat Weggekom Het
TTITLE9=Could It Be You (Duet Met Joe Niemand)
TTITLE10=Stay With Me Baby
TTITLE11=They Can't Take That Away From me
EXTD=YEAR: 2002
EXTT0=
EXTT1=
EXTT2=
EXTT3=
EXTT4=
EXTT5=
EXTT6=
EXTT7=
EXTT8=
EXTT9=
EXTT10=
EXTT11=
PLAYORDER=
